<?xml version="1.0" encoding="UTF-8"?>
<svg id="Layer_1" xmlns="http://www.w3.org/2000/svg" version="1.1" viewBox="0 0 71.61 17.21">
  <!-- Generator: Adobe Illustrator 30.0.0, SVG Export Plug-In . SVG Version: 2.1.1 Build 123)  -->
  <path d="M.28,9.76v-.24c0-3.19,2.14-4.83,5.4-4.83s5.38,1.65,5.35,4.8v.7s-8.17,0-8.17,0c.07,1.8,1.05,2.65,2.82,2.65,1.63,0,2.46-.52,2.67-1.64h2.57c-.37,2.25-2.22,3.4-5.24,3.4-3.27,0-5.4-1.66-5.4-4.84ZM8.46,8.65c-.15-1.55-1.11-2.24-2.78-2.24s-2.66.69-2.81,2.24h5.59Z"/>
  <path d="M11.88,9.52v-.24c0-3.19,2.14-4.83,5.4-4.83s5.38,1.65,5.35,4.8v.7s-8.17,0-8.17,0c.07,1.8,1.05,2.65,2.82,2.65,1.63,0,2.46-.52,2.67-1.64h2.57c-.37,2.25-2.22,3.4-5.24,3.4-3.27,0-5.4-1.66-5.4-4.84ZM20.06,8.41c-.15-1.55-1.11-2.24-2.78-2.24s-2.66.69-2.81,2.24h5.59Z"/>
  <path d="M25.25.42h1.46l-2.19,16.4h-1.44L25.25.42Z"/>
  <g>
    <path d="M27.13,11.31v-3.9h2.44v.51h-1.85v1.19h1.73v.5h-1.73v1.19h1.88v.51h-2.47Z"/>
    <path d="M30.89,9.58v1.73h-.57v-2.92h.55v.48h.04c.07-.15.17-.28.32-.37.14-.09.33-.14.54-.14.2,0,.37.04.52.12.15.08.27.21.35.37.08.16.12.37.12.61v1.86h-.57v-1.79c0-.21-.06-.38-.17-.5-.11-.12-.26-.18-.45-.18-.13,0-.25.03-.35.09s-.18.14-.24.25c-.06.11-.09.24-.09.4Z"/>
    <path d="M34.74,12.47c-.23,0-.43-.03-.6-.09-.17-.06-.3-.14-.41-.24-.11-.1-.18-.21-.24-.33l.49-.2c.03.06.08.12.14.18.06.06.14.12.24.16.1.04.23.07.39.07.22,0,.39-.05.53-.16s.21-.27.21-.5v-.57h-.04c-.03.06-.08.13-.15.21s-.15.14-.26.2c-.11.06-.26.08-.44.08-.23,0-.44-.05-.62-.16s-.33-.27-.44-.48c-.11-.21-.16-.47-.16-.78s.05-.58.16-.8.25-.39.44-.51.4-.18.63-.18c.18,0,.33.03.44.09.11.06.2.13.26.21.06.08.11.15.15.21h.04v-.47h.56v2.99c0,.25-.06.46-.17.62s-.27.28-.47.36c-.2.08-.42.12-.67.12ZM34.73,10.8c.16,0,.3-.04.42-.12.11-.08.2-.19.26-.33.06-.14.09-.32.09-.52s-.03-.37-.09-.52c-.06-.15-.14-.27-.26-.35-.11-.08-.25-.13-.42-.13s-.31.04-.43.13c-.11.09-.2.21-.26.36-.06.15-.09.32-.09.51s.03.36.09.5c.06.14.14.26.26.34.11.08.26.12.43.12Z"/>
    <path d="M37.11,7.94c-.1,0-.18-.03-.25-.1s-.11-.15-.11-.24.04-.17.11-.24c.07-.07.16-.1.25-.1s.18.03.25.1c.07.07.11.15.11.24s-.04.17-.11.24-.16.1-.25.1ZM36.82,11.31v-2.92h.57v2.92h-.57Z"/>
    <path d="M38.72,9.58v1.73h-.57v-2.92h.55v.48h.04c.07-.15.17-.28.32-.37.14-.09.33-.14.54-.14.2,0,.37.04.52.12.15.08.27.21.35.37.08.16.12.37.12.61v1.86h-.57v-1.79c0-.21-.05-.38-.17-.5-.11-.12-.26-.18-.46-.18-.13,0-.25.03-.35.09-.1.06-.18.14-.24.25-.06.11-.09.24-.09.4Z"/>
    <path d="M42.61,11.37c-.29,0-.54-.06-.74-.19-.21-.12-.37-.3-.48-.52-.11-.23-.17-.49-.17-.79s.06-.56.17-.79c.11-.23.27-.41.47-.53.2-.13.44-.19.71-.19.17,0,.32.03.48.08.15.05.29.14.42.26s.22.27.29.45c.07.19.11.41.11.68v.2h-2.32v-.43h1.77c0-.15-.03-.28-.09-.4-.06-.12-.15-.21-.26-.27-.11-.07-.24-.1-.38-.1-.16,0-.3.04-.42.12-.12.08-.21.18-.27.3-.06.12-.1.26-.1.41v.33c0,.19.04.36.1.5.07.14.17.24.29.31.12.07.27.11.44.11.11,0,.21-.02.29-.05.09-.03.17-.08.23-.14.06-.06.11-.14.15-.23l.54.1c-.04.16-.12.3-.23.42-.11.12-.25.21-.42.28s-.36.1-.57.1Z"/>
    <path d="M45.76,11.37c-.29,0-.54-.06-.74-.19-.21-.12-.37-.3-.48-.52-.11-.23-.17-.49-.17-.79s.06-.56.17-.79c.11-.23.27-.41.47-.53.2-.13.44-.19.71-.19.17,0,.32.03.48.08.15.05.29.14.42.26s.22.27.29.45c.07.19.11.41.11.68v.2h-2.32v-.43h1.77c0-.15-.03-.28-.09-.4-.06-.12-.15-.21-.26-.27-.11-.07-.24-.1-.38-.1-.16,0-.3.04-.42.12-.12.08-.21.18-.27.3-.06.12-.1.26-.1.41v.33c0,.19.04.36.1.5.07.14.17.24.29.31.12.07.27.11.44.11.11,0,.21-.02.29-.05.09-.03.17-.08.23-.14.06-.06.11-.14.15-.23l.54.1c-.04.16-.12.3-.23.42-.11.12-.25.21-.42.28s-.36.1-.57.1Z"/>
    <path d="M47.64,11.31v-2.92h.55v.46h.03c.05-.16.15-.28.28-.37.13-.09.29-.14.46-.14.04,0,.08,0,.13,0s.09,0,.11,0v.54s-.06-.01-.12-.02-.12-.01-.17-.01c-.13,0-.25.03-.36.08-.1.06-.19.13-.25.23-.06.1-.09.21-.09.34v1.78h-.57Z"/>
    <path d="M49.99,7.94c-.1,0-.18-.03-.25-.1-.07-.07-.11-.15-.11-.24s.04-.17.11-.24c.07-.07.15-.1.25-.1s.18.03.25.1c.07.07.11.15.11.24s-.04.17-.11.24-.16.1-.25.1ZM49.7,11.31v-2.92h.57v2.92h-.57Z"/>
    <path d="M51.61,9.58v1.73h-.57v-2.92h.55v.48h.04c.07-.15.17-.28.32-.37.14-.09.33-.14.54-.14.2,0,.37.04.52.12.15.08.27.21.35.37.08.16.12.37.12.61v1.86h-.57v-1.79c0-.21-.05-.38-.17-.5-.11-.12-.26-.18-.46-.18-.13,0-.25.03-.35.09-.1.06-.18.14-.24.25-.06.11-.09.24-.09.4Z"/>
    <path d="M55.46,12.47c-.23,0-.43-.03-.6-.09-.17-.06-.3-.14-.41-.24-.1-.1-.18-.21-.24-.33l.49-.2c.04.06.08.12.14.18s.14.12.24.16c.1.04.23.07.39.07.21,0,.39-.05.53-.16s.21-.27.21-.5v-.57h-.04c-.03.06-.08.13-.15.21-.06.08-.15.14-.26.2-.11.06-.26.08-.44.08-.23,0-.44-.05-.62-.16-.18-.11-.33-.27-.44-.48-.11-.21-.16-.47-.16-.78s.05-.58.16-.8c.11-.22.25-.39.44-.51.18-.12.39-.18.63-.18.18,0,.33.03.44.09s.2.13.26.21c.06.08.11.15.15.21h.04v-.47h.56v2.99c0,.25-.06.46-.17.62-.12.16-.27.28-.47.36-.2.08-.42.12-.67.12ZM55.46,10.8c.16,0,.3-.04.42-.12.11-.08.2-.19.26-.33.06-.14.09-.32.09-.52s-.03-.37-.09-.52c-.06-.15-.14-.27-.26-.35-.11-.08-.25-.13-.42-.13s-.31.04-.43.13c-.11.09-.2.21-.26.36s-.09.32-.09.51.03.36.09.5c.06.14.14.26.26.34.11.08.26.12.42.12Z"/>
    <path d="M59.01,11.31v-3.9h2.44v.51h-1.85v1.19h1.73v.5h-1.73v1.19h1.88v.51h-2.46Z"/>
    <path d="M63.28,11.37c-.24,0-.45-.06-.63-.18s-.33-.29-.43-.52c-.1-.23-.16-.5-.16-.81s.05-.59.16-.81c.11-.22.25-.4.44-.52.18-.12.39-.18.63-.18.18,0,.33.03.44.09.11.06.2.13.26.21.06.08.11.15.14.21h.03v-1.45h.57v3.9h-.56v-.45h-.05c-.03.06-.08.13-.15.21-.06.08-.15.15-.26.21-.11.06-.26.09-.43.09ZM63.41,10.89c.16,0,.3-.04.42-.13.11-.09.2-.21.26-.36.06-.15.09-.33.09-.54s-.03-.38-.09-.53c-.06-.15-.14-.27-.26-.36-.11-.08-.25-.13-.42-.13s-.31.04-.43.13-.2.21-.26.36-.09.33-.09.52.03.37.09.53c.06.16.14.28.26.37.11.09.26.14.42.14Z"/>
    <path d="M66.77,12.47c-.23,0-.43-.03-.6-.09-.17-.06-.3-.14-.41-.24-.1-.1-.18-.21-.24-.33l.49-.2c.04.06.08.12.14.18s.14.12.24.16c.1.04.23.07.39.07.21,0,.39-.05.53-.16s.21-.27.21-.5v-.57h-.04c-.03.06-.08.13-.15.21-.06.08-.15.14-.26.2-.11.06-.26.08-.44.08-.23,0-.44-.05-.62-.16-.18-.11-.33-.27-.44-.48-.11-.21-.16-.47-.16-.78s.05-.58.16-.8c.11-.22.25-.39.44-.51.18-.12.39-.18.63-.18.18,0,.33.03.44.09s.2.13.26.21c.06.08.11.15.15.21h.04v-.47h.56v2.99c0,.25-.06.46-.17.62-.12.16-.27.28-.47.36-.2.08-.42.12-.67.12ZM66.76,10.8c.16,0,.3-.04.42-.12.11-.08.2-.19.26-.33.06-.14.09-.32.09-.52s-.03-.37-.09-.52c-.06-.15-.14-.27-.26-.35-.11-.08-.25-.13-.42-.13s-.31.04-.43.13c-.11.09-.2.21-.26.36s-.09.32-.09.51.03.36.09.5c.06.14.14.26.26.34.11.08.26.12.42.12Z"/>
    <path d="M70.11,11.37c-.29,0-.54-.06-.74-.19-.21-.12-.37-.3-.48-.52-.11-.23-.17-.49-.17-.79s.06-.56.17-.79c.11-.23.27-.41.47-.53.2-.13.44-.19.71-.19.17,0,.32.03.48.08.15.05.29.14.42.26s.22.27.29.45c.07.19.11.41.11.68v.2h-2.32v-.43h1.77c0-.15-.03-.28-.09-.4-.06-.12-.15-.21-.26-.27-.11-.07-.24-.1-.38-.1-.16,0-.3.04-.42.12-.12.08-.21.18-.27.3-.06.12-.1.26-.1.41v.33c0,.19.04.36.1.5.07.14.17.24.29.31.12.07.27.11.44.11.11,0,.21-.02.29-.05.09-.03.17-.08.23-.14.06-.06.11-.14.15-.23l.54.1c-.04.16-.12.3-.23.42-.11.12-.25.21-.42.28s-.36.1-.57.1Z"/>
  </g>
</svg>