<?xml version="1.0" encoding="UTF-8" standalone="no"?>
<!DOCTYPE svg PUBLIC "-//W3C//DTD SVG 1.1//EN" "http://www.w3.org/Graphics/SVG/1.1/DTD/svg11.dtd">
<svg width="100%" height="100%" viewBox="0 0 250 75" version="1.1" xmlns="http://www.w3.org/2000/svg" xmlns:xlink="http://www.w3.org/1999/xlink" xml:space="preserve" xmlns:serif="http://www.serif.com/" style="fill-rule:evenodd;clip-rule:evenodd;stroke-linejoin:round;stroke-miterlimit:2;">
    <g transform="matrix(1,0,0,1,-1115.3,-1716.77)">
        <g transform="matrix(1.60684,0,0,1.60684,1147.34,1762.03)">
            <g>
                <text x="0px" y="0px" style="font-family:'Lato-Bold', 'Lato', sans-serif;font-weight:700;font-size:14.936px;fill:white;">The Rogue Scholar</text>
            </g>
        </g>
        <g transform="matrix(0.770204,0,0,0.813602,254.263,326.992)">
            <g transform="matrix(0.872032,0,0,0.872032,1137.53,1774.54)">
                <g>
                    <path d="M0,-17.297C-0.305,-17.189 -0.6,-17.116 -0.918,-17.104C-3.699,-17.003 -6.467,-17.187 -9.224,-17.528C-9.727,-17.591 -10.014,-17.453 -10.277,-17.057C-10.421,-16.84 -10.468,-16.618 -10.522,-16.378C-11.475,-12.19 -12.797,-8.119 -14.413,-4.143C-14.634,-3.601 -14.582,-3.42 -13.992,-3.194C-13.337,-2.943 -12.665,-2.742 -12.015,-2.466C-8.864,-1.131 -5.652,-0.007 -2.87,0.119C-0.719,0.294 -0.381,-0.005 -0.309,-1.492C-0.302,-1.633 -0.308,-1.774 -0.304,-1.915C-0.25,-3.918 -0.256,-5.926 -0.127,-7.924C0.058,-10.796 0.354,-13.659 0.9,-16.49C1.027,-17.151 0.638,-17.523 0,-17.297" style="fill:white;fill-rule:nonzero;"/>
                    <g transform="matrix(1,0,0,1,1.15821,-19.8273)">
                        <path d="M0,-13.883C-0.383,-13.935 -0.76,-13.996 -1.137,-14.087C-3.387,-14.63 -5.618,-15.306 -7.834,-15.077C-9.455,-15.158 -10.924,-15.007 -12.396,-14.935C-12.779,-14.917 -13.17,-14.863 -13.538,-14.758C-14.053,-14.61 -14.289,-14.113 -14.044,-13.71C-13.243,-12.39 -13.053,-10.884 -12.732,-9.424C-12.416,-7.986 -12.391,-6.5 -12.065,-5.055C-11.694,-3.411 -11.392,-1.747 -11.234,-0.066C-11.135,0.99 -11.103,1.053 -10.072,1.037C-7.969,1.005 -5.867,0.844 -3.762,1.047C-3.063,1.114 -2.368,1.199 -1.672,1.291C-0.684,1.423 -0.561,1.282 -0.607,0.308C-0.679,-1.234 -0.857,-2.77 -0.694,-4.321C-0.384,-7.251 -0.255,-10.206 0.549,-13.066C0.688,-13.559 0.452,-13.821 0,-13.883" style="fill:white;fill-rule:nonzero;"/>
                    </g>
                    <g transform="matrix(1,0,0,1,-11.6051,-45.1704)">
                        <path d="M0,9.554C0.846,9.208 1.724,9.321 2.6,9.362C4.701,9.46 6.801,9.569 8.899,9.731C10.553,9.859 12.165,10.165 13.727,10.711C14.694,11.049 15.063,10.799 14.888,9.778C14.716,8.776 14.433,7.792 14.268,6.789C14.123,5.911 13.802,5.103 13.487,4.284C13.278,3.74 12.912,3.481 12.345,3.627C11.55,3.831 10.738,3.789 9.934,3.834C8.142,3.933 8.174,4.097 8.664,2.297C8.922,1.349 9.246,0.419 9.496,-0.531C9.691,-1.273 9.506,-1.469 8.72,-1.474C8.264,-1.476 7.808,-1.467 7.352,-1.481C6.917,-1.495 6.626,-1.317 6.739,-0.869C6.917,-0.166 6.728,0.532 6.797,1.229C6.846,1.861 6.884,2.493 6.796,3.124C6.687,3.911 6.598,4.01 5.802,4.047C5.03,4.082 4.255,4.045 3.484,4.081C2.926,4.106 2.327,4.123 1.995,4.69C1.196,6.054 0.328,7.371 -0.64,8.622C-0.826,8.863 -0.886,9.121 -0.657,9.386C-0.473,9.599 -0.261,9.661 0,9.554" style="fill:white;fill-rule:nonzero;"/>
                    </g>
                    <g transform="matrix(1,0,0,1,7.79788,-23.4395)">
                        <path d="M0,-6.839C-0.49,-7.83 -1.312,-8.329 -2.308,-8.457C-3.353,-8.592 -4.405,-8.384 -5.374,-7.932C-5.781,-7.742 -5.961,-7.407 -5.593,-7.007C-5.364,-6.756 -5.286,-6.486 -5.286,-6.147C-5.287,-5.206 -5.196,-5.148 -4.247,-5.346C-4.11,-5.375 -3.978,-5.434 -3.84,-5.446C-3.043,-5.519 -2.235,-4.945 -1.916,-4.091C-1.599,-3.241 -1.795,-2.582 -2.511,-2.057C-2.97,-1.721 -3.506,-1.767 -4.025,-1.758C-4.393,-1.752 -4.804,-1.735 -4.896,-1.344C-5.07,-0.598 -5.29,0.159 -5.194,0.94C-5.135,1.423 -4.725,1.753 -4.296,1.554C-3.403,1.139 -2.367,1.094 -1.556,0.522C-0.078,-0.519 0.608,-2.005 0.724,-3.815C0.603,-4.835 0.483,-5.863 0,-6.839" style="fill:white;fill-rule:nonzero;"/>
                    </g>
                    <g transform="matrix(1,0,0,1,-14.8733,-32.7396)">
                        <path d="M0,-1.061L-0.118,-1.247C-0.312,-1.372 -0.535,-1.487 -0.453,-1.779C-0.445,-1.808 -0.324,-1.835 -0.271,-1.818C0.032,-1.717 0.006,-1.477 -0.041,-1.232C0.008,-1.194 0.09,-1.161 0.098,-1.115C0.114,-1.029 0.044,-0.996 0,-1.061M1.267,2.28C1.66,2.18 1.777,1.837 1.754,1.314C1.677,1.007 1.549,0.571 1.459,0.128C1.307,-0.624 1.208,-1.389 1.03,-2.135C0.848,-2.895 0.534,-3.111 -0.16,-2.873C-0.79,-2.658 -1.34,-2.809 -1.882,-3.046C-2.213,-3.19 -2.496,-3.446 -2.768,-3.002C-3.012,-2.604 -2.921,-2.262 -2.54,-2.013C-1.122,-1.088 -0.052,0.11 0.488,1.743C0.606,2.101 0.854,2.385 1.267,2.28" style="fill:white;fill-rule:nonzero;"/>
                    </g>
                </g>
            </g>
        </g>
    </g>
</svg>
