<?xml version="1.0" encoding="UTF-8" standalone="no"?>
<!DOCTYPE svg PUBLIC "-//W3C//DTD SVG 1.1//EN" "http://www.w3.org/Graphics/SVG/1.1/DTD/svg11.dtd">
<svg width="100%" height="100%" viewBox="0 0 250 75" version="1.1" xmlns="http://www.w3.org/2000/svg" xmlns:xlink="http://www.w3.org/1999/xlink" xml:space="preserve" xmlns:serif="http://www.serif.com/" style="fill-rule:evenodd;clip-rule:evenodd;stroke-linejoin:round;stroke-miterlimit:2;">
    <g transform="matrix(1,0,0,1,-1115.3,-1716.77)">
        <g transform="matrix(0.146353,0,0,0.146353,955.093,1497.7)">
            <g transform="matrix(4.16667,0,0,4.16667,1288.55,1858.65)">
                <path d="M0,-4.399C0.013,-4.431 0.038,-4.465 0.036,-4.496C0.029,-4.611 -0.011,-4.631 -0.056,-4.55C-0.071,-4.522 -0.069,-4.477 -0.06,-4.444C-0.055,-4.425 -0.021,-4.414 0,-4.399M8.322,-10.602C8.449,-9.673 8.64,-8.252 8.845,-6.833C8.87,-6.655 8.93,-6.393 9.051,-6.338C9.217,-6.261 9.385,-6.471 9.501,-6.613C10.099,-7.343 10.665,-8.099 11.285,-8.809C11.634,-9.209 11.983,-9.601 12.25,-10.061C12.666,-10.78 12.629,-11.017 11.892,-11.392C11.112,-11.789 10.242,-11.92 9.386,-12.062C8.369,-12.23 8.286,-12.139 8.322,-10.602M16.951,-5.404C16.916,-5.494 16.888,-5.606 16.833,-5.701C16.19,-6.807 15.711,-8.013 14.788,-8.945C14.159,-9.579 14.104,-9.609 13.613,-8.906C12.469,-7.267 11.316,-5.63 10.519,-3.78C10.45,-3.618 10.257,-3.45 10.438,-3.282C10.594,-3.137 10.809,-3.258 10.966,-3.328C11.868,-3.728 12.834,-3.924 13.762,-4.232C14.626,-4.519 15.518,-4.665 16.381,-4.933C16.614,-5.005 16.925,-5.029 16.951,-5.404M8.108,7.312C9.502,7.351 10.838,6.917 12.137,6.389C13.003,6.036 13.015,5.895 12.451,5.174C11.187,3.559 9.973,1.914 9.215,-0.016C9.142,-0.201 9.051,-0.397 8.856,-0.414C8.646,-0.433 8.55,-0.234 8.475,-0.052C7.716,1.803 6.847,3.622 6.49,5.615C6.163,7.444 6.179,7.447 8.108,7.312M7.022,-5.002C6.82,-6.745 6.63,-8.631 6.371,-10.508C6.224,-11.582 6.039,-11.632 5.21,-10.953C3.556,-9.598 2.552,-7.777 1.639,-5.897C1.491,-5.592 1.395,-5.259 1.305,-4.93C1.081,-4.108 1.206,-3.937 2.086,-3.86C2.424,-3.831 2.767,-3.85 3.106,-3.831C3.975,-3.783 4.85,-3.77 5.711,-3.661C6.96,-3.503 6.956,-3.473 7.002,-4.746C7.003,-4.784 7.007,-4.822 7.022,-5.002M4.588,-1.758C3.636,-1.708 2.616,-1.679 1.601,-1.592C0.894,-1.531 0.799,-1.39 0.847,-0.623C0.946,0.985 1.455,2.484 2.147,3.921C2.478,4.608 2.976,5.185 3.622,5.612C4.156,5.966 4.328,5.935 4.512,5.317C4.922,3.935 5.551,2.653 6.192,1.373C6.568,0.622 6.703,-0.207 6.908,-1.009C7.111,-1.801 6.973,-1.936 6.118,-1.822C5.63,-1.756 5.149,-1.651 4.588,-1.758M17.401,-1.637C17.408,-1.789 17.42,-1.94 17.421,-2.091C17.425,-3.038 17.394,-3.071 16.485,-3.012C15.919,-2.975 15.347,-2.962 14.79,-2.867C13.485,-2.647 12.185,-2.389 10.921,-1.991C10.267,-1.786 10.203,-1.609 10.447,-1.119C11.424,0.846 12.59,2.702 13.75,4.56C14.114,5.143 14.208,5.182 14.647,4.664C16.189,2.842 17.379,0.854 17.401,-1.637M0.571,-6.172C0.355,-6.068 0.314,-5.848 0.227,-5.659C0.277,-5.647 0.347,-5.609 0.376,-5.628C0.543,-5.743 0.508,-5.939 0.55,-6.105C0.559,-6.139 0.581,-6.169 0.593,-6.199L0.551,-6.244C0.618,-6.25 0.625,-6.226 0.571,-6.172M18.634,-6.848C18.646,-6.817 18.666,-6.787 18.666,-6.757C18.665,-6.732 18.64,-6.707 18.626,-6.682C18.636,-6.735 18.647,-6.788 18.657,-6.842C18.59,-6.914 18.523,-6.986 18.456,-7.058C18.436,-7.032 18.395,-7.002 18.398,-6.98C18.419,-6.837 18.559,-6.897 18.634,-6.848M13.204,-11.571C13.267,-11.578 13.33,-11.584 13.393,-11.594C13.398,-11.595 13.397,-11.629 13.399,-11.648C13.328,-11.612 13.257,-11.577 13.187,-11.541C13.189,-11.547 13.192,-11.553 13.204,-11.571M-1.529,-0.004C-1.381,-4.059 -0.342,-7.525 2.458,-10.322C4.383,-12.246 6.714,-13.294 9.355,-13.734C9.687,-13.79 10.045,-13.788 10.377,-13.73C14.106,-13.08 17.279,-11.481 18.976,-7.937C19.955,-5.895 20.449,-3.708 19.959,-1.311C19.446,1.196 18.604,3.509 17.159,5.585C15.489,7.983 13.081,9.15 10.207,9.343C9.502,9.391 8.78,9.139 8.088,8.984C5.676,8.445 3.384,7.628 1.416,6.015C-0.582,4.377 -1.519,2.312 -1.529,-0.004" style="fill:white;fill-rule:nonzero;"/>
            </g>
            <g transform="matrix(4.16667,0,0,4.16667,1248.8,1837.02)">
                <path d="M0,-0.392C0.406,-0.345 0.559,-0.519 0.354,-1.059C0.114,-1.695 -0.151,-2.326 -0.464,-2.929C-0.968,-3.9 -1.392,-4.92 -2.043,-5.807C-2.672,-6.665 -2.73,-6.658 -3.498,-5.958C-4.735,-4.83 -5.741,-3.501 -6.765,-2.188C-6.898,-2.017 -7.168,-1.87 -7.07,-1.623C-6.954,-1.327 -6.619,-1.379 -6.375,-1.375C-5.165,-1.354 -3.96,-1.269 -2.773,-1.038C-1.885,-0.864 -1.009,-0.63 0,-0.392M-17.09,-0.889C-18.019,-1.035 -18.085,-1.002 -17.952,0.434C-17.935,0.621 -17.877,0.805 -17.842,0.992C-17.541,2.601 -16.512,3.865 -15.801,5.278C-15.489,5.896 -15.29,5.887 -14.863,5.313C-14.773,5.192 -14.718,5.046 -14.633,4.921C-13.737,3.611 -12.852,2.294 -11.937,0.996C-11.376,0.201 -11.527,-0.233 -12.507,-0.363C-13.933,-0.55 -15.364,-0.693 -17.09,-0.889M-12.411,-2.468C-11.311,-2.43 -10.583,-3.177 -10.786,-4C-11.119,-5.354 -11.505,-6.696 -11.923,-8.026C-12.14,-8.718 -12.271,-8.746 -12.914,-8.449C-13.393,-8.227 -13.859,-7.974 -14.318,-7.712C-15.777,-6.879 -16.33,-5.428 -16.847,-3.959C-16.883,-3.857 -16.867,-3.734 -16.867,-3.621C-16.868,-3.325 -16.769,-3.126 -16.431,-3.077C-15.017,-2.871 -13.605,-2.65 -12.411,-2.468M-8.704,-9.323C-8.956,-9.348 -9.403,-9.373 -9.86,-9.292C-10.274,-9.219 -10.458,-9.105 -10.324,-8.626C-9.905,-7.131 -9.54,-5.623 -9.397,-4.069C-9.362,-3.682 -9.178,-3.354 -8.856,-3.105C-8.356,-2.719 -8.14,-2.721 -7.698,-3.175C-7.355,-3.527 -7.022,-3.888 -6.685,-4.246C-5.776,-5.209 -4.876,-6.179 -3.956,-7.132C-3.7,-7.397 -3.588,-7.632 -3.954,-7.854C-4.984,-8.478 -5.965,-9.224 -7.255,-9.238C-7.671,-9.242 -8.087,-9.285 -8.704,-9.323M-8.527,9.434C-8.247,9.434 -8.133,9.437 -8.02,9.434C-7.222,9.406 -7.23,9.397 -7.431,8.564C-7.688,7.502 -7.917,6.435 -8.151,5.368C-8.346,4.482 -8.55,3.598 -8.713,2.707C-8.813,2.159 -9.139,1.986 -9.647,1.915C-10.154,1.845 -10.44,2.05 -10.632,2.473C-10.806,2.857 -11.078,3.171 -11.323,3.508C-12.126,4.61 -12.814,5.785 -13.433,7C-13.593,7.314 -13.755,7.62 -13.286,7.844C-11.714,8.591 -10.148,9.353 -8.527,9.434M-5.547,0.206C-5.551,0.236 -5.554,0.265 -5.558,0.294C-5.86,0.294 -6.164,0.28 -6.466,0.297C-7.288,0.344 -7.658,0.728 -7.525,1.518C-7.13,3.855 -6.191,5.997 -5.105,8.084C-4.893,8.492 -4.692,8.363 -4.396,8.181C-3.247,7.476 -2.456,6.402 -1.525,5.471C-0.475,4.42 -0.161,3.067 0.138,1.697C0.238,1.24 0.086,0.987 -0.4,0.922C-2.117,0.692 -3.832,0.446 -5.547,0.206M-19.79,-0.768C-19.828,-1.167 -19.628,-1.787 -19.969,-2.356C-20.019,-2.439 -20.034,-2.616 -19.981,-2.679C-19.053,-3.783 -19.13,-5.305 -18.337,-6.49C-17.085,-8.36 -15.547,-9.803 -13.477,-10.751C-11.228,-11.781 -8.943,-11.721 -6.627,-11.26C-5.666,-11.069 -4.799,-10.555 -4,-9.969C-2.759,-9.06 -1.413,-8.273 -0.452,-7.029C1.009,-5.137 2.015,-3.042 2.244,-0.635C2.297,-0.069 2.601,0.538 2.462,1.023C2.241,1.789 2.183,2.586 1.92,3.338C1.168,5.486 -0.262,7.225 -1.528,9.06C-1.776,9.419 -2.093,9.753 -2.672,9.541C-3,9.42 -3.294,9.758 -3.593,9.904C-5.446,10.815 -7.366,11.389 -9.465,11.345C-10.883,11.316 -12.178,10.881 -13.344,10.19C-15.482,8.923 -17.303,7.32 -18.458,5.016C-19.351,3.235 -19.687,1.373 -19.79,-0.768" style="fill:white;fill-rule:nonzero;"/>
            </g>
            <g transform="matrix(4.16667,0,0,4.16667,1293.26,1688.71)">
                <path d="M0,25.555C-1.129,25.695 -2.301,25.529 -3.468,25.416C-5.351,25.234 -7.228,24.999 -9.036,24.376C-10.556,23.852 -11.976,23.146 -13.234,22.149C-15.264,20.54 -17.126,18.759 -18.618,16.624C-19.077,15.968 -19.413,15.238 -19.66,14.488C-20.05,13.3 -20.46,12.1 -20.662,10.872C-21.037,8.596 -21.383,6.306 -21.305,3.981C-21.281,3.258 -21.198,2.542 -21.033,1.839C-20.93,1.402 -20.717,1 -21.15,0.587C-21.356,0.39 -21.136,0.18 -20.924,0.057C-20.611,-0.125 -20.263,-0.091 -19.924,-0.101C-18.444,-0.14 -16.979,0.08 -15.508,0.187C-12.142,0.432 -8.775,0.621 -5.398,0.669C-0.702,0.737 3.998,0.677 8.686,1.062C11.369,1.282 14.052,1.505 16.733,1.747C18.068,1.867 18.384,2.316 18.051,3.757C17.812,4.792 17.631,5.837 17.409,6.874C16.471,11.276 15.1,15.49 12.388,19.188C9.59,23.003 5.934,25.185 1.186,25.476C0.808,25.499 0.43,25.526 0,25.555" style="fill:white;fill-rule:nonzero;"/>
            </g>
            <g transform="matrix(4.16667,0,0,4.16667,1282.8,1683.82)">
                <path d="M0,0.101C0.015,0.074 0.03,0.047 0.045,0.021C-0.041,0 -0.059,0.025 0,0.101" style="fill:white;fill-rule:nonzero;"/>
            </g>
            <g transform="matrix(4.16667,0,0,4.16667,1340.12,1658.77)">
                <path d="M0,-7.208C0.704,-7.796 0.683,-7.967 -0.246,-8.321C-2.137,-9.04 -3.873,-9.999 -5.413,-11.321C-5.999,-11.823 -6.254,-11.741 -6.563,-10.993C-6.873,-10.245 -7.01,-9.407 -7.413,-8.72C-9.079,-5.883 -10.401,-2.867 -12.044,-0.016C-12.885,1.444 -13.713,2.943 -14.25,4.564C-13.995,4.615 -13.836,4.43 -13.676,4.289C-9.201,0.357 -4.569,-3.388 0,-7.208" style="fill:white;fill-rule:nonzero;"/>
            </g>
            <g transform="matrix(-4.16293,-0.176395,-0.176395,4.16293,1280.6,1678.35)">
                <path d="M0.074,-0.126C0.075,-0.116 0.077,-0.105 0.081,-0.087C0.086,-0.061 0.079,-0.008 0.074,-0.008C-0.001,-0.001 -0.016,-0.039 0.003,-0.1C0.056,-0.072 0.072,-0.1 0.074,-0.126" style="fill:white;fill-rule:nonzero;"/>
            </g>
            <g transform="matrix(4.16667,0,0,4.16667,1365,1665.53)">
                <path d="M0,4.109C-0.672,2.8 -0.876,1.405 -0.771,-0.117C-0.771,-0.383 -0.777,-0.718 -0.77,-1.053C-0.759,-1.553 -1.018,-1.852 -1.467,-1.613C-2.417,-1.106 -3.506,-1.133 -4.477,-0.705C-7.449,0.609 -10.444,1.868 -13.422,3.167C-14.01,3.423 -14.702,3.54 -15.053,4.186C-14.467,4.361 -13.864,4.278 -13.268,4.308C-10.645,4.436 -8.003,4.198 -5.401,4.732C-3.667,5.088 -1.93,5.425 -0.194,5.771C0.081,5.826 0.42,5.961 0.585,5.691C0.67,5.553 0.503,5.242 0.417,5.022C0.295,4.711 0.153,4.407 0,4.109" style="fill:white;fill-rule:nonzero;"/>
            </g>
            <g transform="matrix(4.16667,0,0,4.16667,1355.93,1662.14)">
                <path d="M0,-3.078C-0.672,-4.219 -0.857,-5.499 -0.85,-6.811C-0.848,-7.096 -0.855,-7.389 -0.915,-7.667C-1.048,-8.283 -1.284,-8.392 -1.801,-8.025C-3.163,-7.057 -4.586,-6.154 -5.837,-5.056C-9.396,-1.932 -13.179,0.927 -16.634,4.169C-16.953,4.469 -17.466,4.643 -17.467,5.204C-16.862,5.314 -16.378,4.988 -15.872,4.747C-15.013,4.338 -14.174,3.883 -13.3,3.508C-9.046,1.685 -4.792,-0.14 -0.513,-1.905C0.174,-2.188 0.423,-2.36 0,-3.078" style="fill:white;fill-rule:nonzero;"/>
            </g>
            <g transform="matrix(4.16667,0,0,4.16667,1114.15,1770.63)">
                <path d="M0,-30.461C0.05,-30.584 0.009,-30.688 -0.099,-30.743C-0.172,-30.779 -0.234,-30.715 -0.21,-30.623C-0.181,-30.512 -0.127,-30.408 0.023,-30.485C-0.076,-30.072 0.086,-29.778 0.446,-29.581C0.464,-29.571 0.534,-29.606 0.535,-29.622C0.544,-30.02 0.38,-30.31 0,-30.461M24.465,0.983C24.447,1.703 24.07,1.928 23.409,1.645C22.305,1.173 21.442,0.341 20.719,-0.545C19.167,-2.447 17.804,-4.501 16.278,-6.425C13.143,-10.379 10.28,-14.533 7.243,-18.559C5.577,-20.768 4,-23.046 2.485,-25.366C1.722,-26.534 0.927,-27.69 -0.046,-28.714C-0.537,-29.233 -0.929,-29.85 -1.338,-30.441C-1.765,-31.057 -1.408,-32.081 -0.704,-32.304C-0.436,-32.389 -0.19,-32.345 0.033,-32.144C0.431,-31.786 0.782,-31.39 1.057,-30.932C2.519,-28.498 4.059,-26.117 5.763,-23.842C6.785,-22.478 7.565,-20.948 8.621,-19.602C10.048,-17.781 11.419,-15.915 12.872,-14.114C15.584,-10.752 18.101,-7.233 20.977,-4.003C21.481,-3.439 22.033,-2.918 22.562,-2.376C23.335,-1.582 23.902,-0.652 24.336,0.361C24.423,0.565 24.43,0.804 24.465,0.983" style="fill:white;fill-rule:nonzero;"/>
            </g>
        </g>
        <g transform="matrix(1,0,0,1,1077.36,1709.75)">
            <text x="93.066px" y="39.313px" style="font-family:'CoolBritannia-Sans', 'Cool Britannia';font-size:24px;fill:white;">InvenioRDM</text>
            <g transform="matrix(24,0,0,24,157.002,65.3127)">
            </g>
            <text x="93.066px" y="65.313px" style="font-family:'CoolBritannia-Sans', 'Cool Britannia';font-size:24px;fill:white;">Sta<tspan x="121.89px 130.77px " y="65.313px 65.313px ">rt</tspan>er</text>
        </g>
    </g>
</svg>
